<svg xmlns="http://www.w3.org/2000/svg" width="512" height="512" viewBox="0 0 512 512">
  <g fill="none">
    <path fill="#AA8ED6" d="M512.0025,256 C512.0025,114.6175 397.385,0 256.0025,0 C114.62,0 0.0025,114.6175 0.0025,256 C0.0025,397.3825 114.62,512 256.0025,512 C397.385,512 512.0025,397.3825 512.0025,256"/>
    <path fill="#553986" d="M388.7675,446.178743 C386.23625,448.468743 382.4525,448.611243 379.73625,446.591243 C379.18125,446.178743 323.95625,405.346243 256.0025,405.346243 C188.21875,405.346243 132.81,446.178743 132.26875,446.591243 C129.5525,448.611243 125.76875,448.439993 123.2375,446.178743 C120.72,443.903743 120.15125,440.148743 121.9,437.247493 C123.735,434.189993 167.6525,362.679993 256.00125,362.679993 C344.35,362.679993 388.2825,434.188743 390.1025,437.247493 C391.85375,440.162493 391.29875,443.902493 388.7675,446.178743" transform="matrix(1 0 0 -1 0 810.688)"/>
    <path fill="#553986" d="M412.4475,341.339996 C409.305,341.339996 334.9225,340.799996 288.615,294.506246 C283.05375,288.944996 283.05375,279.957496 288.615,274.396246 C291.38875,271.622496 295.02875,270.228746 298.67,270.228746 C298.855,270.228746 299.01125,270.328746 299.1825,270.328746 C298.955,267.953746 298.67,265.592496 298.67,263.117496 C298.67,235.611246 314.585,213.339996 334.225,213.339996 C353.865,213.339996 369.78,235.612496 369.78,263.117496 C369.78,279.174996 364.2475,293.311246 355.81375,302.413746 C385.0825,312.582496 412.04875,312.894996 412.475,312.894996 C420.31125,312.908746 426.66875,319.294996 426.655,327.131246 C426.64125,334.982496 420.2975,341.339996 412.4475,341.339996" transform="matrix(1 0 0 -1 0 554.68)"/>
    <path fill="#553986" d="M223.39125,294.504996 C177.0975,340.798746 102.70125,341.338746 99.55875,341.338746 C91.7075,341.338746 85.35125,334.981246 85.35125,327.131246 C85.3375,319.294996 91.69375,312.908746 99.545,312.894996 C99.9575,312.894996 126.9225,312.582496 156.1925,302.413746 C147.75875,293.311246 142.22625,279.174996 142.22625,263.117496 C142.22625,235.611246 158.14125,213.339996 177.78125,213.339996 C197.42125,213.339996 213.33625,235.612496 213.33625,263.117496 C213.33625,265.592496 213.06625,267.952496 212.81,270.328746 C212.995,270.328746 213.165,270.228746 213.33625,270.228746 C216.9775,270.228746 220.6175,271.622496 223.39125,274.396246 C228.9525,279.956246 228.9525,288.943746 223.39125,294.504996" transform="matrix(1 0 0 -1 0 554.679)"/>
    <path fill="#AA8ED6" d="M494.4525,168.505 C483.78625,172.9275 471.5975,170.4825 463.4475,162.3325 C450.86125,149.74625 406.60125,113.7775 369.78,113.7775 C359.92375,113.7775 350.77875,108.67125 345.5875,100.295 C340.41,91.90375 339.94125,81.43625 344.33625,72.61875 L372.78125,15.73 C377.6025,6.10125 387.45875,0 398.225,0 C488.2375,0 512.0025,93.0275 512.0025,142.2225 C512.0025,153.7275 505.07625,164.09625 494.4525,168.505" transform="matrix(1 0 0 -1 0 170.681)"/>
    <path fill="#AA8ED6" d="M142.225,113.77875 C105.53125,113.77875 62.14,148.85125 48.5575,162.33375 C40.43625,170.46875 28.1775,172.915 17.5675,168.50625 C6.92875,164.09625 0.0025,153.72875 0.0025,142.2225 C0.0025,93.0275 23.7825,2.84217094e-14 113.78,2.84217094e-14 C124.54625,2.84217094e-14 134.4025,6.0875 139.22375,15.715 L167.66875,72.60375 C172.0775,81.43625 171.60875,91.90375 166.4175,100.28 C161.24,108.6725 152.08125,113.77875 142.225,113.77875" transform="matrix(1 0 0 -1 0 170.673)"/>
  </g>
</svg>
