<svg xmlns="http://www.w3.org/2000/svg" width="512" height="512" viewBox="0 0 512 512">
  <g fill="none">
    <path fill="#98CBFC" d="M512,256 C512,114.6175 397.3825,0 256,0 C114.6175,0 2.84217094e-14,114.6175 2.84217094e-14,256 C2.84217094e-14,397.3825 114.6175,512 256,512 C397.3825,512 512,397.3825 512,256"/>
    <path fill="#04488B" d="M256,426.142513 C204.4725,426.142513 170.2825,432.143763 128,440.365013 C118.3425,442.227513 99.555,440.365013 99.555,411.920013 C99.555,355.031263 164.90625,283.920013 256,283.920013 C347.07875,283.920013 412.445,355.031263 412.445,411.920013 C412.445,440.365013 393.6575,442.241263 384,440.365013 C341.7175,432.143763 307.5275,426.142513 256,426.142513" transform="matrix(1 0 0 -1 0 724.805)"/>
    <path fill="#98CBFC" d="M128,369.778765 C128,369.778765 170.66625,355.556265 256,355.556265 C341.33375,355.556265 384,369.778765 384,369.778765 C384,369.778765 355.555,312.890015 256,312.890015 C156.445,312.890015 128,369.778765 128,369.778765" transform="matrix(1 0 0 -1 0 682.669)"/>
    <path fill="#04488B" d="M206 192C206 164.3708 190.109619 142 170.5 142 150.890381 142 135 164.372056 135 192 135 219.614133 150.890381 242 170.5 242 190.109619 242 206 219.614133 206 192M377 192C377 164.3708 361.109619 142 341.5 142 321.890381 142 306 164.372056 306 192 306 219.614133 321.890381 242 341.5 242 361.109619 242 377 219.614133 377 192"/>
  </g>
</svg>
